<?xml version="1.0" encoding="iso-8859-1"?>
<!-- Generator: Adobe Illustrator 19.0.0, SVG Export Plug-In . SVG Version: 6.00 Build 0)  -->
<svg xmlns="http://www.w3.org/2000/svg" xmlns:xlink="http://www.w3.org/1999/xlink" version="1.1" id="Layer_1" x="0px" y="0px" viewBox="0 0 511.983 511.983" style="enable-background:new 0 0 511.983 511.983;" xml:space="preserve" width="20" height="20" fill="#fabb5b">
<path id="_x3C_Group_x3E_" d="M493.858,18.125C480.297,4.564,461.601-1.871,442.569,0.474  c-19.034,2.343-35.609,13.119-45.476,29.563l-0.884,1.473c-26.653-4.948-53.888,0.545-76.442,15.352l-22.782-22.783l-63.64,63.64  l14.658,14.658c-25.108,8.369-48.112,18.795-71.517,42.201L0.001,321.064l190.918,190.919l176.486-176.486  c22.038-22.038,33.124-44.288,42.201-71.517l14.658,14.658l63.639-63.64l-22.782-22.782c14.807-22.556,20.302-49.791,15.351-76.443  l1.474-0.884c16.444-9.867,27.221-26.442,29.563-45.477C513.852,50.379,507.419,31.685,493.858,18.125z M346.192,314.283  L190.919,469.556L42.426,321.064l21.213-21.213l42.427,42.426l21.213-21.213l-42.427-42.426l21.214-21.214l63.64,63.64  l21.213-21.213l-63.64-63.64l21.214-21.213l42.426,42.426l21.213-21.213l-42.426-42.426l21.213-21.213l63.639,63.639l21.213-21.213  l-62.524-62.524c20.118-14.757,35.53-18.731,58.474-26.38l114.168,114.168C377.869,264.321,371.659,288.817,346.192,314.283z   M424.264,236.211L275.771,87.719l21.214-21.213l148.492,148.492L424.264,236.211z M466.51,89.165l-20.959,12.577l3.397,11.197  c5.917,19.503,3.725,40.033-5.687,57.418L341.626,68.72c17.385-9.412,37.914-11.605,57.419-5.686l11.197,3.398l12.576-20.961  c10.656-17.759,35.161-20.8,49.827-6.133C487.294,53.988,484.29,78.498,466.51,89.165z"/>















</svg>
