<svg id="Layer_1" data-name="Layer 1" xmlns="http://www.w3.org/2000/svg" viewBox="0 0 150 150"><defs><style>.cls-1{fill:#6638aa;}</style></defs><path class="cls-1" d="M74.76,28.25A27.87,27.87,0,1,1,46.79,56v-.2A27.84,27.84,0,0,1,74.76,28.25ZM64.38,55.42c.17,4.13.27,7.24.43,10.35q.21,2.45.66,4.86c0,1,.46,1.09,1.42.83a18.32,18.32,0,0,0,1.92-.7A126.05,126.05,0,0,0,86,61.08c1.68-1.13,3.3-2.39,4.86-3.58a.78.78,0,0,0,.35-1.06.81.81,0,0,0-.35-.36c-.47-.36-.86-.82-1.33-1.15-2.77-1.89-5.48-3.87-8.36-5.56-3.94-2.31-8-4.36-12-6.61a13.68,13.68,0,0,0-2.54-.89.87.87,0,0,0-1.15.41,1.18,1.18,0,0,0-.08.31,8.56,8.56,0,0,0-.39,1.86C64.81,48.51,64.58,52.48,64.38,55.42Z"/><path class="cls-1" d="M103.36,129c.17-4.16.43-8.36.43-12.53a.93.93,0,0,1,.73-1c6.87-2.81,9.92-6.48,15.5-11.44A61.25,61.25,0,0,0,139.1,72.41a87.71,87.71,0,0,0,1.06-27.34S138,22.89,123.63,25.4c-14.88,2.58-9.46,23.15-9.46,23.15a34.14,34.14,0,0,1-1,20.82,29.13,29.13,0,0,1-12.47,14.95,38.55,38.55,0,0,1-11.57,5.25,41.73,41.73,0,0,1-8.63.9,237.54,237.54,0,0,1-25.72-1c-4.63-.36-9.22-1-13.82-1.19a22.14,22.14,0,0,0-19.83,9.09,39.6,39.6,0,0,0-5.66,11.38c-2,5.32-3.6,10.64-5.42,16-.2.63-1.48,5.43-1.48,5.43a6.44,6.44,0,0,0,2.57,1.22,71.56,71.56,0,0,0,13.52,3.31,298.22,298.22,0,0,0,34.65,3.3c4.23.2,8.5.4,12.76.4H94c3.22-.08,5.8-.17,9-.3C103,138,103.36,130.83,103.36,129Z"/></svg>