<svg id="Layer_1" data-name="Layer 1" xmlns="http://www.w3.org/2000/svg" viewBox="0 0 47.78 45.87"><defs><style>.cls-1{fill:#6638aa;}</style></defs><title>Untitled-4</title><path class="cls-1" d="M20.83,0h3.86c.06,0,1.9,0,2,0,2.69.13,5.38.23,8.07.4a51.39,51.39,0,0,1,6.65.82,15.82,15.82,0,0,1,3.25.9,2.47,2.47,0,0,1,1.46,1.47,10.8,10.8,0,0,1,.4,1.13,24.83,24.83,0,0,1,.82,4.76c.19,2.31.32,4.63.47,6.94,0,.37,0,.74.06,1.11V23.9a.42.42,0,0,0,0,.15c-.06,3.18-.23,6.34-.53,9.5a55,55,0,0,1-.88,6.14,12.94,12.94,0,0,1-1,3.15,2,2,0,0,1-1,1,12.31,12.31,0,0,1-1.39.52,33.18,33.18,0,0,1-5.69,1c-3,.32-5.94.46-8.92.52l-.78,0H22a1.55,1.55,0,0,0-.21,0c-1.29,0-2.57,0-3.86-.11a92,92,0,0,1-10.47-1,20.53,20.53,0,0,1-4.09-1,2.75,2.75,0,0,1-1.77-1.67,6.23,6.23,0,0,1-.24-.73,29.62,29.62,0,0,1-.86-5.29c-.25-2.65-.36-5.31-.39-8,0-.36,0-.73,0-1.09V24a1.85,1.85,0,0,0,0-.23c0-.87,0-1.74.05-2.61.1-2.33.2-4.65.34-7a62.38,62.38,0,0,1,.92-7.71,15.26,15.26,0,0,1,.86-3.11A2.32,2.32,0,0,1,3.46,2.07,12.44,12.44,0,0,1,6,1.29,40.75,40.75,0,0,1,11.6.52C14,.35,16.48.24,18.92.1ZM31.19,44.71h.13c2.87-.14,5.74-.29,8.6-.71a20.51,20.51,0,0,0,3.27-.71,2.27,2.27,0,0,0,1.66-1.63c.24-.87.49-1.74.66-2.62a61.27,61.27,0,0,0,.87-7.28c.26-3.58.38-7.17.38-10.76,0-2.08-.06-4.17-.13-6.26A61.11,61.11,0,0,0,46,7a13,13,0,0,0-.71-2.81,2,2,0,0,0-1.13-1.13A14.7,14.7,0,0,0,41,2.25c-2-.34-4-.53-6-.68-3.14-.24-6.29-.35-9.44-.4-1.4,0-2.81,0-4.22,0s-2.91.05-4.36.1c-2.89.1-5.78.27-8.65.65a23.68,23.68,0,0,0-3.71.75A2.38,2.38,0,0,0,2.84,4.46a24.37,24.37,0,0,0-.75,3.86c-.22,2.11-.43,4.23-.58,6.35-.26,3.46-.35,6.93-.35,10.4,0,2.29,0,4.58.1,6.88a59,59,0,0,0,.59,7.28c.13.82.36,1.62.57,2.42a4.83,4.83,0,0,0,.34.69c.1-.26.18-.44.24-.62.54-1.61,1.07-3.23,1.63-4.83a11.93,11.93,0,0,1,1.72-3.44,6.72,6.72,0,0,1,6-2.76c1.4.08,2.79.25,4.18.37a72.36,72.36,0,0,0,7.79.31,13.45,13.45,0,0,0,2.61-.28,11.42,11.42,0,0,0,3.5-1.59A8.84,8.84,0,0,0,34.16,25a11.34,11.34,0,0,0,.05-7.28A14.47,14.47,0,0,0,31.72,13a4.46,4.46,0,0,1,6.87-5.68,22.36,22.36,0,0,1,3.11,5,20.27,20.27,0,0,1,1.36,13.62,18.57,18.57,0,0,1-5.77,9.56,19.27,19.27,0,0,1-5.69,3.45.32.32,0,0,0-.22.32c0,1.26-.08,2.52-.12,3.78C31.24,43.58,31.21,44.14,31.19,44.71Z"/><path class="cls-1" d="M21.38,12.55a8.43,8.43,0,1,1-8.46,8.34A8.42,8.42,0,0,1,21.38,12.55Zm-3.14,8.22c.05,1.25.07,2.19.13,3.13a12.35,12.35,0,0,0,.2,1.47c.05.28.14.33.42.25a4.19,4.19,0,0,0,.59-.22,38.62,38.62,0,0,0,5.21-2.93c.51-.33,1-.71,1.46-1.08.18-.13.2-.28,0-.43a4.47,4.47,0,0,0-.4-.34c-.83-.57-1.65-1.17-2.53-1.69-1.18-.69-2.4-1.32-3.61-2a4.1,4.1,0,0,0-.77-.26.27.27,0,0,0-.38.21,5.78,5.78,0,0,0-.12.57C18.37,18.68,18.29,19.87,18.24,20.77Z"/></svg>