<svg id="Layer_1" data-name="Layer 1" xmlns="http://www.w3.org/2000/svg" viewBox="0 0 47.78 45.69"><defs><style>.cls-1{fill:#6638aa;}</style></defs><title>hirightnow</title><path class="cls-1" d="M34.68.3a51.33,51.33,0,0,1,6.66.82A16,16,0,0,1,44.59,2a2.53,2.53,0,0,1,1.46,1.46,11.6,11.6,0,0,1,.39,1.13,25,25,0,0,1,.83,4.77c.18,2.3.31,4.62.47,6.93,0,.37,0,.74,0,1.11v6.29c0,.05,0,.11,0,.16-.06,3.17-.22,6.34-.53,9.5a57.78,57.78,0,0,1-.87,6.14,12.89,12.89,0,0,1-1,3.14,2,2,0,0,1-1,1c-.46.18-.91.38-1.39.52a34.06,34.06,0,0,1-5.68,1c-3,.31-5.94.45-8.92.52-.26,0-.52,0-.78,0H21.92l-.2,0c-1.29,0-2.58-.06-3.86-.12a89.68,89.68,0,0,1-10.48-1,21.45,21.45,0,0,1-4.09-1A2.77,2.77,0,0,1,1.52,42c-.08-.24-.17-.48-.24-.72A28.73,28.73,0,0,1,.43,36C.18,33.3.07,30.65,0,28c0-.36,0-.73,0-1.09V23.77a.93.93,0,0,0,0-.23c0-.87,0-1.74.06-2.61.1-2.32.19-4.65.34-7a62.36,62.36,0,0,1,.91-7.71A14.67,14.67,0,0,1,2.2,3.14,2.3,2.3,0,0,1,3.42,1.89,12,12,0,0,1,6,1.12a40.78,40.78,0,0,1,5.6-.78C12.77.26,17.82,0,22.91,0S33.33.22,34.68.3Zm7.57,17.15A21.45,21.45,0,0,1,42,25.73a18.53,18.53,0,0,1-5.77,9.56c-1.69,1.5-2.61,2.61-4.69,3.46a.28.28,0,0,0-.22.31c0,1.26-.08,2.53-.13,3.79,0,.55,0,1.11-.07,1.68a.31.31,0,0,0,.13,0,85.21,85.21,0,0,0,8.6-.71,21.77,21.77,0,0,0,3.28-.7,2.29,2.29,0,0,0,1.65-1.64c.24-.86.5-1.73.67-2.62a61.25,61.25,0,0,0,.86-7.28c.27-3.58.38-7.17.38-10.76,0-2.08-.06-4.17-.12-6.25a63,63,0,0,0-.68-7.76A13.53,13.53,0,0,0,45.21,4a2,2,0,0,0-1.14-1.14A14.59,14.59,0,0,0,41,2.08c-2-.35-4-.54-6-.69C31.8,1.15,28.66,1,25.51,1c-1.41,0-2.82,0-4.22,0s-2.91,0-4.37.09c-2.89.1-5.78.27-8.65.65a24.89,24.89,0,0,0-3.71.75,2.38,2.38,0,0,0-1.75,1.8,23,23,0,0,0-.75,3.85q-.34,3.16-.59,6.35c-.26,3.46-.35,6.93-.35,10.4,0,2.29,0,4.59.11,6.88a55.68,55.68,0,0,0,.59,7.29c.13.81.36,1.61.57,2.42a3.3,3.3,0,0,0,.34.68c.1-.26.17-.43.23-.62C3.51,39.93,4,38.32,4.6,36.71a12,12,0,0,1,1.71-3.44,6.7,6.7,0,0,1,6-2.75c1.39.07,2.78.25,4.18.36a72.18,72.18,0,0,0,7.78.31,12.56,12.56,0,0,0,2.61-.27,11.66,11.66,0,0,0,3.5-1.59,8.81,8.81,0,0,0,3.77-4.52,10.35,10.35,0,0,0,.31-6.3s-1.64-6.22,2.86-7c4.34-.76,5,5.95,5,5.95Zm.22-3.33"/><path class="cls-1" d="M21.34,12.37a8.43,8.43,0,1,1-8.46,8.34A8.42,8.42,0,0,1,21.34,12.37ZM18.2,20.59c.05,1.25.08,2.19.13,3.13a14.82,14.82,0,0,0,.2,1.47c0,.29.14.33.43.25a5.71,5.71,0,0,0,.58-.21,38,38,0,0,0,5.21-2.93c.51-.34,1-.72,1.47-1.08a.24.24,0,0,0,0-.43c-.14-.11-.26-.25-.4-.35-.84-.57-1.66-1.17-2.53-1.68-1.19-.7-2.41-1.32-3.62-2a4.14,4.14,0,0,0-.77-.27.26.26,0,0,0-.37.22,2.66,2.66,0,0,0-.12.56C18.33,18.5,18.26,19.7,18.2,20.59Z"/></svg>