<svg width="57" height="57" viewBox="0 0 57 57" fill="none" xmlns="http://www.w3.org/2000/svg">
<path d="M55.3376 1.03671C50.2661 0.397444 44.6832 1.42027 39.3134 3.93471C38.7593 4.19041 38.5463 4.82968 38.802 5.38371C39.0577 5.93774 39.6969 6.15082 40.251 5.89512C41.8704 5.17062 43.4473 4.53135 45.0667 4.10518L53.2493 12.2878C51.6725 17.7854 48.4335 23.2831 43.8735 27.8432C37.1399 34.5768 28.4033 38.4124 20.5616 38.2845L26.2724 32.5311C26.6986 32.105 26.6986 31.4231 26.2724 30.9969C25.8462 30.5707 25.1643 30.5707 24.7381 30.9969L19.0274 36.7503C18.8995 28.9086 22.7777 20.2146 29.4687 13.4811C30.9177 12.0321 32.4519 10.7109 34.0714 9.51762C34.5402 9.17668 34.668 8.49479 34.3271 7.98338C33.9862 7.51459 33.3043 7.38674 32.7929 7.72768C31.0882 8.96359 29.4687 10.37 27.9345 11.9042C27.3378 12.5009 26.7838 13.0975 26.2298 13.7368C26.1871 13.7368 26.1445 13.7368 26.1019 13.7368L22.3089 14.3334C21.1583 14.5039 19.6666 15.271 18.8143 16.0807L12.8478 22.0472C12.3364 22.5586 12.0381 23.2831 12.0381 24.0076C12.0381 24.7321 12.3364 25.4566 12.8478 25.968L17.4505 30.5707C16.8539 33.3409 16.6834 36.111 16.9391 38.7959L15.4901 40.3302C15.0639 40.7563 15.0639 41.4382 15.4901 41.8644C15.7032 42.0775 16.0015 42.1627 16.2572 42.1627C16.5556 42.1627 16.8113 42.0775 17.0243 41.8644L18.516 40.3728C19.3257 40.458 20.1354 40.5006 20.9452 40.5006C22.8203 40.5006 24.7808 40.2876 26.7412 39.8614L31.3439 44.4641C31.8553 44.9755 32.5798 45.2738 33.3043 45.2738C34.0714 45.2738 34.7533 44.9755 35.2647 44.4641L41.2312 38.4976C42.0409 37.6879 42.808 36.1536 42.9785 35.003L43.5325 31.21C43.5325 31.1674 43.5325 31.1248 43.5325 31.0821C44.1292 30.5281 44.7684 29.9741 45.3651 29.3774C50.3087 24.4338 53.8034 18.4247 55.4228 12.4156C55.4655 12.3304 55.5081 12.2025 55.5081 12.1173C56.403 8.70788 56.6587 5.25585 56.2752 2.01691C56.2326 1.5055 55.8064 1.12194 55.3376 1.03671ZM18.0898 28.1415L14.3821 24.4338C14.2116 24.2633 14.2116 24.0928 14.2116 24.0076C14.2116 23.9224 14.2542 23.7519 14.3821 23.5814L20.3485 17.615C20.8599 17.1036 21.9254 16.5921 22.6073 16.4643L24.1841 16.2512C21.3713 19.9589 19.3257 24.0502 18.0898 28.1415ZM40.8476 34.7046C40.7624 35.3865 40.2083 36.4946 39.6969 36.9634L33.7305 42.9298C33.6026 43.0577 33.4748 43.1003 33.3043 43.1003C33.219 43.1003 33.0486 43.0577 32.8781 42.9298L29.1704 39.2221C33.2617 37.9862 37.353 35.9406 41.0607 33.1278L40.8476 34.7046ZM53.8034 9.81594L47.496 3.50853C49.7973 3.08235 52.0134 2.9545 54.1869 3.12497C54.4 5.29847 54.2295 7.55721 53.8034 9.81594Z" fill="white"/>
<path d="M36.2022 7.89834C36.4153 7.89834 36.5858 7.85572 36.7562 7.72787C36.8841 7.64264 37.0545 7.5574 37.1824 7.47217C37.6938 7.17384 37.8643 6.49196 37.566 5.98055C37.2676 5.46914 36.5858 5.29867 36.0743 5.59699C35.9039 5.68222 35.776 5.76746 35.6055 5.8527C35.0941 6.15102 34.9237 6.8329 35.222 7.34431C35.4777 7.72787 35.8613 7.89834 36.2022 7.89834Z" fill="white"/>
<path d="M35.9463 16.8053C35.9463 18.0413 36.4151 19.1919 37.3101 20.0443C38.1624 20.8966 39.3131 21.408 40.549 21.408C41.7849 21.408 42.9356 20.9393 43.7879 20.0443C44.6403 19.1919 45.1517 18.0413 45.1517 16.8053C45.1517 15.5694 44.6829 14.4188 43.7879 13.5664C42.9356 12.714 41.7849 12.2026 40.549 12.2026C39.3131 12.2026 38.1624 12.6714 37.3101 13.5664C36.4151 14.4188 35.9463 15.5694 35.9463 16.8053ZM38.8017 15.1006C39.2705 14.6318 39.8671 14.3761 40.5064 14.3761C41.1456 14.3761 41.7423 14.6318 42.2111 15.1006C42.6799 15.5694 42.9356 16.1661 42.9356 16.8053C42.9356 17.4446 42.6799 18.0413 42.2111 18.51C41.7423 18.9788 41.1456 19.2345 40.5064 19.2345C39.8671 19.2345 39.2705 18.9788 38.8017 18.51C38.3329 18.0413 38.0772 17.4446 38.0772 16.8053C38.1198 16.1661 38.3755 15.5694 38.8017 15.1006Z" fill="white"/>
<path d="M7.26494 50.3025C7.47803 50.5156 7.77636 50.6008 8.03206 50.6008C8.33039 50.6008 8.58609 50.5156 8.79918 50.3025L12.72 46.3817C13.1462 45.9555 13.1462 45.2736 12.72 44.8475C12.2938 44.4213 11.6119 44.4213 11.1858 44.8475L7.26494 48.7683C6.83877 49.1945 6.83877 49.8763 7.26494 50.3025Z" fill="white"/>
<path d="M11.7825 56.0132C11.9956 56.2263 12.2939 56.3116 12.5496 56.3116C12.848 56.3116 13.1037 56.2263 13.3168 56.0132L21.1158 48.2142C21.542 47.788 21.542 47.1062 21.1158 46.68C20.6896 46.2538 20.0077 46.2538 19.5816 46.68L11.7825 54.479C11.3563 54.9052 11.3563 55.5871 11.7825 56.0132Z" fill="white"/>
<path d="M2.10788 45.8707C2.40621 45.8707 2.66191 45.7854 2.875 45.5723L10.674 37.7733C11.1002 37.3471 11.1002 36.6652 10.674 36.2391C10.2479 35.8129 9.56597 35.8129 9.13979 36.2391L1.29815 44.0381C0.871972 44.4643 0.871972 45.1462 1.29815 45.5723C1.51124 45.7854 1.80956 45.8707 2.10788 45.8707Z" fill="white"/>
<path d="M4.40921 51.6238L3.42901 52.604C3.00283 53.0302 3.00283 53.7121 3.42901 54.1383C3.6421 54.3514 3.94042 54.4366 4.19612 54.4366C4.49445 54.4366 4.75015 54.3514 4.96324 54.1383L5.94345 53.1581C6.36962 52.7319 6.36962 52.05 5.94345 51.6238C5.51727 51.1977 4.83539 51.1977 4.40921 51.6238Z" fill="white"/>
</svg>
