<svg width="88" height="95" viewBox="0 0 88 95" fill="none" xmlns="http://www.w3.org/2000/svg">
<rect y="50" width="14" height="14" rx="4" fill="#FF99AD"/>
<rect x="60" y="8" width="14" height="14" rx="4" fill="#FF99AD"/>
<rect x="60" y="71" width="14" height="14" rx="7" fill="#8C57DB"/>
<rect x="37" y="81" width="14" height="14" rx="4" fill="#FF99AD"/>
<rect y="26" width="14" height="14" rx="4" fill="#FF99AD"/>
<rect x="70" y="26" width="14" height="14" rx="7" fill="#8C57DB"/>
<path d="M80.1056 50.7889C80.4741 50.0518 81.5259 50.0518 81.8944 50.7889L87.2764 61.5528C87.6088 62.2177 87.1253 63 86.382 63H75.618C74.8747 63 74.3912 62.2177 74.7236 61.5528L80.1056 50.7889Z" fill="#FABB5B"/>
<path d="M20.1056 7.78886C20.4741 7.05181 21.5259 7.05181 21.8944 7.78885L27.2764 18.5528C27.6088 19.2177 27.1253 20 26.382 20H15.618C14.8747 20 14.3912 19.2177 14.7236 18.5528L20.1056 7.78886Z" fill="#FABB5B"/>
<rect x="14" y="71" width="14" height="14" rx="7" fill="#8C57DB"/>
<rect x="37" width="14" height="14" rx="7" fill="#8C57DB"/>
<line x1="46.4771" y1="17.8503" x2="62.4771" y2="68.8503" stroke="#F4F6FA"/>
<line x1="70.2906" y1="39.4069" x2="28.2906" y2="69.4069" stroke="#F4F6FA"/>
<line x1="30.2817" y1="24.5869" x2="74.2817" y2="54.5869" stroke="#F4F6FA"/>
<path d="M18 34.5L42.5 77" stroke="#F4F6FA"/>
<path d="M17.9998 56L59.9997 26" stroke="#F4F6FA"/>
</svg>
