<svg width="53" height="53" viewBox="0 0 53 53" fill="none" xmlns="http://www.w3.org/2000/svg">
<path d="M29.2055 0.191385C29.1672 0.191385 29.1289 0.191385 29.0524 0.191385C28.0954 0.076554 27.062 0 25.9902 0C24.9184 0 23.885 0.076554 22.928 0.191385C22.8898 0.191385 22.8515 0.191385 22.7749 0.191385C15.3109 1.14831 11.5215 5.62672 11.5215 13.5501C11.5215 19.2916 13.5502 26.1432 16.6889 31.0044C16.8803 31.2723 17.1865 31.4637 17.4927 31.4637H18.641L20.8228 38.1239H18.5645C18.0286 38.1239 17.5693 38.545 17.5693 39.1191V51.0233C17.5693 51.5591 17.9903 52.0185 18.5645 52.0185H33.4159C33.9518 52.0185 34.4111 51.5974 34.4111 51.0233V39.1191C34.4111 38.5832 33.9901 38.1239 33.4159 38.1239H31.1576L33.3394 31.4637H34.4877C34.8322 31.4637 35.1384 31.3106 35.2915 31.0044C38.4302 26.1432 40.4589 19.2916 40.4589 13.5501C40.4589 5.62672 36.6695 1.14831 29.2055 0.191385ZM25.9902 2.8325C30.3921 4.3253 32.459 7.80851 32.459 13.5883C32.459 18.8323 30.6983 25.0332 27.9041 29.5499H24.1146C21.3204 24.9949 19.5214 18.794 19.5214 13.5501C19.5214 7.80851 21.6266 4.3253 25.9902 2.8325ZM18.0286 29.5116C15.2344 24.9949 13.4736 18.7557 13.4736 13.5501C13.4736 6.6602 16.4592 2.98561 22.8515 2.14351C19.3683 4.3253 17.5693 8.11473 17.5693 13.5501C17.5693 18.7175 19.2152 24.8035 21.818 29.5116H18.0286ZM20.708 31.4637H23.5787H25.0333V38.1239H22.8898L20.708 31.4637ZM32.459 50.0281H19.5214V44.21H32.4207V50.0281H32.459ZM32.459 40.076V42.2578H19.5214V40.076H22.1625H29.7796H32.459ZM29.0906 38.1239H26.9471V31.4637H28.4017H31.2724L29.0906 38.1239ZM33.9518 29.5116H30.1624C32.7652 24.8035 34.4111 18.7557 34.4111 13.5501C34.4111 8.11473 32.6504 4.3253 29.1289 2.14351C35.5212 2.98561 38.5068 6.6602 38.5068 13.5501C38.5068 18.794 36.746 24.9949 33.9518 29.5116Z" fill="white"/>
<path d="M5.58845 10.0666C6.12432 10.0666 6.58365 9.64553 6.58365 9.07137C6.58365 8.5355 6.1626 8.07617 5.58845 8.07617H0.995203C0.459324 8.07617 0 8.49722 0 9.07137C0 9.60725 0.421047 10.0666 0.995203 10.0666H5.58845Z" fill="white"/>
<path d="M9.07146 8.11475H8.07626C7.54038 8.11475 7.08105 8.53579 7.08105 9.10995C7.08105 9.64583 7.5021 10.1052 8.07626 10.1052H9.07146C9.60734 10.1052 10.0667 9.6841 10.0667 9.10995C10.0667 8.53579 9.64562 8.11475 9.07146 8.11475Z" fill="white"/>
<path d="M51.0236 12.019H42.794C42.2582 12.019 41.7988 12.4401 41.7988 13.0142C41.7988 13.5501 42.2199 14.0094 42.794 14.0094H51.0236C51.5595 14.0094 52.0188 13.5884 52.0188 13.0142C51.9805 12.4401 51.5595 12.019 51.0236 12.019Z" fill="white"/>
<path d="M9.07093 19.6362H1.53036C0.994481 19.6362 0.535156 20.0573 0.535156 20.6314C0.535156 21.1673 0.956203 21.6266 1.53036 21.6266H9.10921C9.64509 21.6266 10.1044 21.2056 10.1044 20.6314C10.0661 20.0956 9.64509 19.6362 9.07093 19.6362Z" fill="white"/>
<path d="M49.7983 22.6216H46.0089C45.473 22.6216 45.0137 23.0426 45.0137 23.6168C45.0137 24.1527 45.4347 24.612 46.0089 24.612H49.7983C50.3342 24.612 50.7935 24.1909 50.7935 23.6168C50.7935 23.0426 50.3342 22.6216 49.7983 22.6216Z" fill="white"/>
<path d="M42.794 22.6216H40.8419C40.306 22.6216 39.8467 23.0426 39.8467 23.6168C39.8467 24.1527 40.2677 24.612 40.8419 24.612H42.794C43.3299 24.612 43.7892 24.1909 43.7892 23.6168C43.7509 23.0426 43.3299 22.6216 42.794 22.6216Z" fill="white"/>
</svg>
