<svg width="88" height="94" viewBox="0 0 88 94" fill="none" xmlns="http://www.w3.org/2000/svg">
<rect x="74" width="14" height="14" rx="4" fill="#FF99AD"/>
<rect width="14" height="14" rx="7" fill="#8C57DB"/>
<rect x="74" y="20" width="14" height="14" rx="4" fill="#FF99AD"/>
<rect y="20" width="14" height="14" rx="7" fill="#8C57DB"/>
<rect x="74" y="40" width="14" height="14" rx="4" fill="#FF99AD"/>
<rect y="40" width="14" height="14" rx="7" fill="#8C57DB"/>
<rect x="74" y="60" width="14" height="14" rx="4" fill="#FF99AD"/>
<rect y="60" width="14" height="14" rx="7" fill="#8C57DB"/>
<rect x="74" y="80" width="14" height="14" rx="4" fill="#FF99AD"/>
<rect y="80" width="14" height="14" rx="7" fill="#8C57DB"/>
<line x1="20" y1="5.5" x2="68" y2="5.5" stroke="#F4F6FA"/>
<line x1="20" y1="26.5" x2="68" y2="26.5" stroke="#F4F6FA"/>
<line x1="20" y1="46.5" x2="68" y2="46.5" stroke="#F4F6FA"/>
<line x1="20" y1="66.5" x2="68" y2="66.5" stroke="#F4F6FA"/>
<line x1="20" y1="86.5" x2="68" y2="86.5" stroke="#F4F6FA"/>
</svg>
